<?xml version="1.0" encoding="UTF-8" standalone="no"?>
<!-- Created with Inkscape (http://www.inkscape.org/) -->

<svg
   width="115"
   height="115"
   viewBox="0 0 30.427083 30.427084"
   version="1.1"
   id="svg1"
   inkscape:version="1.4.4 (dcaf3e7d9e, 2026-05-05)"
   sodipodi:docname="inkscape.svg"
   xml:space="preserve"
   inkscape:export-filename="microsoft-store/microsoft-store_icon.png"
   inkscape:export-xdpi="901.56525"
   inkscape:export-ydpi="901.56525"
   inkscape:export-batch-name=""
   inkscape:export-batch-path="../assets/icons"
   xmlns:inkscape="http://www.inkscape.org/namespaces/inkscape"
   xmlns:sodipodi="http://sodipodi.sourceforge.net/DTD/sodipodi-0.dtd"
   xmlns:xlink="http://www.w3.org/1999/xlink"
   xmlns="http://www.w3.org/2000/svg"
   xmlns:svg="http://www.w3.org/2000/svg"><sodipodi:namedview
     id="namedview1"
     pagecolor="#2f2f2f"
     bordercolor="#eeeeee"
     borderopacity="1"
     inkscape:showpageshadow="0"
     inkscape:pageopacity="0"
     inkscape:pagecheckerboard="0"
     inkscape:deskcolor="#2f2f2f"
     inkscape:document-units="px"
     showgrid="false"
     inkscape:zoom="1.4142136"
     inkscape:cx="-261.98306"
     inkscape:cy="-112.42998"
     inkscape:window-width="3440"
     inkscape:window-height="1359"
     inkscape:window-x="0"
     inkscape:window-y="0"
     inkscape:window-maximized="1"
     inkscape:current-layer="layer1"><inkscape:grid
       id="grid1"
       units="mm"
       originx="0"
       originy="0"
       spacingx="0.99999999"
       spacingy="0.99999999"
       empcolor="#0099e5"
       empopacity="0.30196078"
       color="#0099e5"
       opacity="0.14901961"
       empspacing="5"
       enabled="true"
       visible="false" /></sodipodi:namedview><defs
     id="defs1"><inkscape:perspective
       sodipodi:type="inkscape:persp3d"
       inkscape:vp_x="0 : 15.213542 : 1"
       inkscape:vp_y="0 : 1000 : 0"
       inkscape:vp_z="30.427083 : 15.213542 : 1"
       inkscape:persp3d-origin="15.213541 : 10.142361 : 1"
       id="perspective54" /><linearGradient
       inkscape:collect="always"
       xlink:href="#linearGradient1"
       id="linearGradient2-2"
       x1="25.971146"
       y1="4.4559431"
       x2="4.4559431"
       y2="25.971146"
       gradientUnits="userSpaceOnUse" /><linearGradient
       id="linearGradient1"
       inkscape:collect="always"><stop
         style="stop-color:#ffb74d;stop-opacity:1;"
         offset="0"
         id="stop1-9" /><stop
         style="stop-color:#e57373;stop-opacity:1;"
         offset="1"
         id="stop2-1" /></linearGradient></defs><g
     inkscape:groupmode="layer"
     id="layer2-3"
     inkscape:label="colors"
     style="display:none"
     transform="translate(10.980206,8.466665)"><rect
       style="display:inline;fill:#c87137;fill-opacity:1;stroke:#ffffff;stroke-width:0.239463;stroke-miterlimit:0"
       id="rect2-3-1-1-3-2"
       width="26.218872"
       height="26.21887"
       x="-41.130157"
       y="13.468617"
       inkscape:label="braun" /><rect
       style="display:inline;fill:#8bedde;fill-opacity:1;stroke:#ffffff;stroke-width:0.239463;stroke-miterlimit:0"
       id="rect2-3-6"
       width="26.218872"
       height="26.21887"
       x="-40.89069"
       y="-13.10944"
       inkscape:label="mint_old" /><rect
       style="display:inline;fill:#ffb74d;fill-opacity:1;stroke:#ffffff;stroke-width:0.239463;stroke-miterlimit:0"
       id="rect2-3-1-1-3"
       width="26.218872"
       height="26.21887"
       x="-67.34903"
       y="26.578053"
       inkscape:label="orange" /><rect
       style="display:inline;fill:#9575cd;fill-opacity:1;stroke:#ffffff;stroke-width:0.239463;stroke-miterlimit:0"
       id="rect2-3-1-5"
       width="26.218872"
       height="26.21887"
       x="-67.349022"
       y="0.1197283"
       inkscape:label="lila" /><rect
       style="display:inline;fill:#8fdcbe;fill-opacity:1;stroke:#ffffff;stroke-width:0.239463;stroke-miterlimit:0"
       id="rect29"
       width="26.218872"
       height="26.21887"
       x="-67.349022"
       y="-26.338606"
       inkscape:label="mint" /><rect
       style="display:inline;fill:#e57373;fill-opacity:1;stroke:#ffffff;stroke-width:0.156398;stroke-miterlimit:0"
       id="rect4-2"
       width="26.301935"
       height="26.301935"
       x="-93.848885"
       y="39.765694"
       inkscape:label="rot" /><rect
       style="display:inline;fill:#64b5f6;fill-opacity:1;stroke:#ffffff;stroke-width:0.274705;stroke-miterlimit:0"
       id="rect3-9"
       width="26.183628"
       height="26.183628"
       x="-93.789726"
       y="13.366516"
       inkscape:label="blau" /><rect
       style="display:inline;fill:#fff176;fill-opacity:1;stroke:#ffffff;stroke-width:0.156398;stroke-miterlimit:0"
       id="rect4-7-1"
       width="26.301935"
       height="26.301935"
       x="-93.848885"
       y="-13.15097"
       inkscape:label="gelb" /><rect
       style="display:inline;fill:#aed581;fill-opacity:1;stroke:#ffffff;stroke-width:0.239463;stroke-miterlimit:0"
       id="rect2-2"
       width="26.218872"
       height="26.21887"
       x="-93.80735"
       y="-39.567768"
       inkscape:label="grün" /></g><g
     inkscape:groupmode="layer"
     id="g1"
     inkscape:label="-----"
     style="display:inline" /><g
     inkscape:groupmode="layer"
     id="g55-0"
     inkscape:label="color_teal_icon_android_background"
     style="display:inline"
     sodipodi:insensitive="true"><rect
       style="display:inline;opacity:1;fill:url(#linearGradient2-2);fill-opacity:1;stroke:none;stroke-width:41.8316;stroke-linecap:round;stroke-linejoin:round"
       id="rect2-9"
       width="30.427084"
       height="30.427084"
       x="-1.7763568e-15"
       y="-1.7763568e-15"
       inkscape:label="Background"
       inkscape:export-filename="microsoft-store/microsoft-store_icon.png"
       inkscape:export-xdpi="901.56525"
       inkscape:export-ydpi="901.56525" /></g><g
     inkscape:groupmode="layer"
     id="g7"
     inkscape:label="color_teal_icon_android"
     style="display:none"><rect
       style="display:inline;opacity:1;fill:url(#linearGradient2-2);fill-opacity:1;stroke:none;stroke-width:41.8316;stroke-linecap:round;stroke-linejoin:round"
       id="rect19"
       width="30.427084"
       height="30.427084"
       x="-1.7763568e-15"
       y="-1.7763568e-15"
       inkscape:label="Background" /></g><g
     inkscape:groupmode="layer"
     id="g54"
     inkscape:label="-----"
     style="display:inline" /><g
     inkscape:groupmode="layer"
     id="g14"
     inkscape:label="white_transparent_icon"
     style="display:none"><rect
       style="opacity:1;fill:#000000;fill-opacity:0;stroke:none;stroke-width:41.8316;stroke-linecap:round;stroke-linejoin:round"
       id="rect13"
       width="30.427084"
       height="30.427084"
       x="-1.7763568e-15"
       y="-1.7763568e-15"
       inkscape:label="Background" /></g><g
     inkscape:groupmode="layer"
     id="g72"
     inkscape:label="-----" /><g
     inkscape:groupmode="layer"
     id="g29"
     inkscape:label="color_transparent_icon_android"
     style="display:none"><rect
       style="opacity:1;fill:#000000;fill-opacity:0;stroke:none;stroke-width:41.8316;stroke-linecap:round;stroke-linejoin:round"
       id="rect7"
       width="30.427084"
       height="30.427084"
       x="-1.7763568e-15"
       y="-1.7763568e-15"
       inkscape:label="Background" /></g><g
     inkscape:groupmode="layer"
     id="layer5"
     inkscape:label="color_transparent_icon"
     style="display:inline"><rect
       style="opacity:1;fill:#000000;fill-opacity:0;stroke:none;stroke-width:41.8316;stroke-linecap:round;stroke-linejoin:round"
       id="rect5"
       width="30.427084"
       height="30.427084"
       x="-1.7763568e-15"
       y="-1.7763568e-15"
       inkscape:label="Background" /><g
       inkscape:groupmode="layer"
       id="g16"
       inkscape:label="icon shadow"
       transform="matrix(0.56686351,0,0,0.55615476,6.9497166,13.446463)"><g
         inkscape:groupmode="layer"
         id="g8"
         inkscape:label="stem"
         style="display:inline"
         transform="matrix(1.8306662,0,0,1.8306662,-12.833565,-24.194616)"><path
           style="display:inline;opacity:1;fill:none;stroke:#464646;stroke-width:1.27737;stroke-linecap:round;stroke-linejoin:round;stroke-miterlimit:0;stroke-dasharray:none;stroke-opacity:1"
           d="m 12.673553,4.786314 c 2.689375,3.5012276 2.765984,6.938965 3.537635,16.087598"
           id="path1"
           sodipodi:nodetypes="cc" /><path
           style="display:inline;opacity:1;fill:#464646;fill-opacity:1;stroke:#464646;stroke-width:1.27737;stroke-linecap:round;stroke-linejoin:round;stroke-miterlimit:0;stroke-dasharray:none;stroke-opacity:1"
           d="m 16.211186,20.873912 c 3.631071,-0.703786 5.558974,-2.844599 5.78371,-6.422436 -3.418173,0.863436 -5.346076,3.004248 -5.78371,6.422436 z"
           id="path6"
           sodipodi:nodetypes="ccc" /><path
           style="display:inline;opacity:1;fill:#aed581;fill-opacity:1;stroke:#464646;stroke-width:1.27737;stroke-linecap:round;stroke-linejoin:round;stroke-miterlimit:0;stroke-dasharray:none;stroke-opacity:1"
           d="m 16.211185,20.873912 c -1.978381,-0.972886 -3.985756,-1.998807 -4.435287,-4.266867 1.93628,0.671706 3.263917,2.643963 4.435287,4.266867 z"
           id="path7"
           sodipodi:nodetypes="ccc" /></g><g
         inkscape:groupmode="layer"
         id="g15"
         inkscape:label="bloom"
         style="display:inline"
         transform="matrix(2.0983281,0,0,2.0983281,3.6708439,-7.4749371)"><path
           style="display:inline;fill:#464646;fill-opacity:1;stroke:#464646;stroke-width:0.778106;stroke-linecap:round;stroke-linejoin:round;stroke-miterlimit:0;stroke-dasharray:none;stroke-opacity:1"
           id="path8"
           sodipodi:type="arc"
           sodipodi:cx="2.7610776"
           sodipodi:cy="-3.8292756"
           sodipodi:rx="1.503071"
           sodipodi:ry="1.5030735"
           sodipodi:start="0"
           sodipodi:end="6.2361158"
           sodipodi:open="true"
           sodipodi:arc-type="arc"
           d="M 4.2641486,-3.8292756 A 1.503071,1.5030735 0 0 1 2.7787644,-2.3263062 1.503071,1.5030735 0 0 1 1.2584229,-3.7939044 1.503071,1.5030735 0 0 1 2.7080271,-5.3314126 1.503071,1.5030735 0 0 1 4.2624838,-3.8999984"
           transform="rotate(-16.767837)" /><path
           style="display:inline;fill:#464646;fill-opacity:1;stroke:#464646;stroke-width:0.778106;stroke-linecap:round;stroke-linejoin:round;stroke-miterlimit:0;stroke-dasharray:none;stroke-opacity:1"
           id="path9"
           sodipodi:type="arc"
           sodipodi:cx="6.7534323"
           sodipodi:cy="-3.8292756"
           sodipodi:rx="1.503071"
           sodipodi:ry="1.5030735"
           sodipodi:start="0"
           sodipodi:end="6.2361158"
           sodipodi:open="true"
           sodipodi:arc-type="arc"
           d="M 8.2565032,-3.8292756 A 1.503071,1.5030735 0 0 1 6.7711191,-2.3263062 1.503071,1.5030735 0 0 1 5.2507776,-3.7939044 1.503071,1.5030735 0 0 1 6.7003817,-5.3314126 1.503071,1.5030735 0 0 1 8.2548385,-3.8999984"
           transform="rotate(-16.767837)" /><path
           style="display:inline;fill:#464646;fill-opacity:1;stroke:#464646;stroke-width:0.778106;stroke-linecap:round;stroke-linejoin:round;stroke-miterlimit:0;stroke-dasharray:none;stroke-opacity:1"
           id="path10"
           sodipodi:type="arc"
           sodipodi:cx="6.7534323"
           sodipodi:cy="0.16475508"
           sodipodi:rx="1.503071"
           sodipodi:ry="1.5030735"
           sodipodi:start="0"
           sodipodi:end="6.2361158"
           sodipodi:open="true"
           sodipodi:arc-type="arc"
           d="M 8.2565032,0.16475508 A 1.503071,1.5030735 0 0 1 6.7711191,1.6677245 1.503071,1.5030735 0 0 1 5.2507776,0.20012627 1.503071,1.5030735 0 0 1 6.7003817,-1.3373819 1.503071,1.5030735 0 0 1 8.2548385,0.09403227"
           transform="rotate(-16.767837)" /><path
           style="display:inline;fill:#464646;fill-opacity:1;stroke:#464646;stroke-width:0.778106;stroke-linecap:round;stroke-linejoin:round;stroke-miterlimit:0;stroke-dasharray:none;stroke-opacity:1"
           id="path11"
           sodipodi:type="arc"
           sodipodi:cx="2.7594101"
           sodipodi:cy="0.16475508"
           sodipodi:rx="1.503071"
           sodipodi:ry="1.5030735"
           sodipodi:start="0"
           sodipodi:end="6.2361158"
           sodipodi:open="true"
           sodipodi:arc-type="arc"
           d="M 4.2624811,0.16475508 A 1.503071,1.5030735 0 0 1 2.7770969,1.6677245 1.503071,1.5030735 0 0 1 1.2567554,0.20012627 1.503071,1.5030735 0 0 1 2.7063596,-1.3373819 1.503071,1.5030735 0 0 1 4.2608163,0.09403227"
           transform="rotate(-16.767837)" /><path
           style="display:inline;opacity:1;fill:#464646;fill-opacity:1;stroke:#464646;stroke-width:0.778106;stroke-linecap:round;stroke-linejoin:round;stroke-miterlimit:0;stroke-dasharray:none;stroke-opacity:1"
           id="path12"
           sodipodi:type="arc"
           sodipodi:cx="4.7564211"
           sodipodi:cy="-1.8322625"
           sodipodi:rx="1.503071"
           sodipodi:ry="1.5030735"
           sodipodi:start="0"
           sodipodi:end="6.2361158"
           sodipodi:open="true"
           sodipodi:arc-type="arc"
           d="M 6.259492,-1.8322625 A 1.503071,1.5030735 0 0 1 4.7741079,-0.32929313 1.503071,1.5030735 0 0 1 3.2537664,-1.7968913 1.503071,1.5030735 0 0 1 4.7033705,-3.3343995 1.503071,1.5030735 0 0 1 6.2578273,-1.9029853"
           transform="rotate(-16.767837)" /><path
           style="opacity:1;fill:#000000;fill-opacity:1;stroke:#464646;stroke-width:0.428448;stroke-linecap:round;stroke-linejoin:round;stroke-miterlimit:0;stroke-dasharray:none;stroke-opacity:1"
           d="M 11.323731,4.6399549 6.2777914,10.243148"
           id="path13" /><path
           style="opacity:1;fill:#000000;fill-opacity:1;stroke:none;stroke-width:0.428448;stroke-linecap:round;stroke-linejoin:round;stroke-miterlimit:0;stroke-dasharray:none;stroke-opacity:1"
           d="M 2.4082644,6.5205609 6.2777916,10.243148"
           id="path14" /></g><path
         id="path15"
         style="display:inline;fill:#464646;fill-opacity:1;stroke:#464646;stroke-width:2.31896;stroke-linecap:square;stroke-dasharray:none;stroke-opacity:1"
         inkscape:label="can"
         d="m 7.9608662,13.812752 c 0,8.125455 0,15.235228 1.8053894,15.235228 H 24.209374 c 1.805391,0 1.805391,-7.109773 1.805391,-15.235228 z"
         sodipodi:nodetypes="cssc" /></g><g
       inkscape:groupmode="layer"
       id="layer1"
       inkscape:label="icon"
       transform="matrix(0.54624921,0,0,0.54624921,7.0103245,13.21629)"><g
         inkscape:groupmode="layer"
         id="layer3"
         inkscape:label="stem"
         style="display:inline"
         transform="matrix(1.8306662,0,0,1.8306662,-12.833565,-24.194616)"><path
           style="display:inline;opacity:1;fill:none;stroke:#aed581;stroke-width:1.27737;stroke-linecap:round;stroke-linejoin:round;stroke-miterlimit:0;stroke-dasharray:none;stroke-opacity:1"
           d="m 12.673553,4.786314 c 2.689375,3.5012276 2.765984,6.938965 3.537635,16.087598"
           id="path2"
           sodipodi:nodetypes="cc" /><path
           style="display:inline;opacity:1;fill:#aed581;fill-opacity:1;stroke:#aed581;stroke-width:1.27737;stroke-linecap:round;stroke-linejoin:round;stroke-miterlimit:0;stroke-dasharray:none;stroke-opacity:1"
           d="m 16.211186,20.873912 c 3.631071,-0.703786 5.558974,-2.844599 5.78371,-6.422436 -3.418173,0.863436 -5.346076,3.004248 -5.78371,6.422436 z"
           id="path4"
           sodipodi:nodetypes="ccc" /><path
           style="display:inline;opacity:1;fill:#aed581;fill-opacity:1;stroke:#aed581;stroke-width:1.27737;stroke-linecap:round;stroke-linejoin:round;stroke-miterlimit:0;stroke-dasharray:none;stroke-opacity:1"
           d="m 16.211185,20.873912 c -1.978381,-0.972886 -3.985756,-1.998807 -4.435287,-4.266867 1.93628,0.671706 3.263917,2.643963 4.435287,4.266867 z"
           id="path5"
           sodipodi:nodetypes="ccc" /></g><g
         inkscape:groupmode="layer"
         id="layer2"
         inkscape:label="bloom"
         style="display:inline"
         transform="matrix(2.0983281,0,0,2.0983281,3.6708439,-7.4749371)"><path
           style="display:inline;fill:#ffffff;stroke:#ffffff;stroke-width:0.778106;stroke-linecap:round;stroke-linejoin:round;stroke-miterlimit:0;stroke-dasharray:none;stroke-opacity:1"
           id="path3-6-3-1"
           sodipodi:type="arc"
           sodipodi:cx="2.7610776"
           sodipodi:cy="-3.8292756"
           sodipodi:rx="1.503071"
           sodipodi:ry="1.5030735"
           sodipodi:start="0"
           sodipodi:end="6.2361158"
           sodipodi:open="true"
           sodipodi:arc-type="arc"
           d="M 4.2641486,-3.8292756 A 1.503071,1.5030735 0 0 1 2.7787644,-2.3263062 1.503071,1.5030735 0 0 1 1.2584229,-3.7939044 1.503071,1.5030735 0 0 1 2.7080271,-5.3314126 1.503071,1.5030735 0 0 1 4.2624838,-3.8999984"
           transform="rotate(-16.767837)" /><path
           style="display:inline;fill:#ffffff;stroke:#ffffff;stroke-width:0.778106;stroke-linecap:round;stroke-linejoin:round;stroke-miterlimit:0;stroke-dasharray:none;stroke-opacity:1"
           id="path3-6-3-1-0"
           sodipodi:type="arc"
           sodipodi:cx="6.7534323"
           sodipodi:cy="-3.8292756"
           sodipodi:rx="1.503071"
           sodipodi:ry="1.5030735"
           sodipodi:start="0"
           sodipodi:end="6.2361158"
           sodipodi:open="true"
           sodipodi:arc-type="arc"
           d="M 8.2565032,-3.8292756 A 1.503071,1.5030735 0 0 1 6.7711191,-2.3263062 1.503071,1.5030735 0 0 1 5.2507776,-3.7939044 1.503071,1.5030735 0 0 1 6.7003817,-5.3314126 1.503071,1.5030735 0 0 1 8.2548385,-3.8999984"
           transform="rotate(-16.767837)" /><path
           style="display:inline;fill:#ffffff;stroke:#ffffff;stroke-width:0.778106;stroke-linecap:round;stroke-linejoin:round;stroke-miterlimit:0;stroke-dasharray:none;stroke-opacity:1"
           id="path3-6-3-1-0-4"
           sodipodi:type="arc"
           sodipodi:cx="6.7534323"
           sodipodi:cy="0.16475508"
           sodipodi:rx="1.503071"
           sodipodi:ry="1.5030735"
           sodipodi:start="0"
           sodipodi:end="6.2361158"
           sodipodi:open="true"
           sodipodi:arc-type="arc"
           d="M 8.2565032,0.16475508 A 1.503071,1.5030735 0 0 1 6.7711191,1.6677245 1.503071,1.5030735 0 0 1 5.2507776,0.20012627 1.503071,1.5030735 0 0 1 6.7003817,-1.3373819 1.503071,1.5030735 0 0 1 8.2548385,0.09403227"
           transform="rotate(-16.767837)" /><path
           style="display:inline;fill:#ffffff;stroke:#ffffff;stroke-width:0.778106;stroke-linecap:round;stroke-linejoin:round;stroke-miterlimit:0;stroke-dasharray:none;stroke-opacity:1"
           id="path3-6-3-1-0-4-9"
           sodipodi:type="arc"
           sodipodi:cx="2.7594101"
           sodipodi:cy="0.16475508"
           sodipodi:rx="1.503071"
           sodipodi:ry="1.5030735"
           sodipodi:start="0"
           sodipodi:end="6.2361158"
           sodipodi:open="true"
           sodipodi:arc-type="arc"
           d="M 4.2624811,0.16475508 A 1.503071,1.5030735 0 0 1 2.7770969,1.6677245 1.503071,1.5030735 0 0 1 1.2567554,0.20012627 1.503071,1.5030735 0 0 1 2.7063596,-1.3373819 1.503071,1.5030735 0 0 1 4.2608163,0.09403227"
           transform="rotate(-16.767837)" /><path
           style="display:inline;opacity:1;fill:#fff176;fill-opacity:1;stroke:#fff176;stroke-width:0.778106;stroke-linecap:round;stroke-linejoin:round;stroke-miterlimit:0;stroke-dasharray:none;stroke-opacity:1"
           id="path3"
           sodipodi:type="arc"
           sodipodi:cx="4.7564211"
           sodipodi:cy="-1.8322625"
           sodipodi:rx="1.503071"
           sodipodi:ry="1.5030735"
           sodipodi:start="0"
           sodipodi:end="6.2361158"
           sodipodi:open="true"
           sodipodi:arc-type="arc"
           d="M 6.259492,-1.8322625 A 1.503071,1.5030735 0 0 1 4.7741079,-0.32929313 1.503071,1.5030735 0 0 1 3.2537664,-1.7968913 1.503071,1.5030735 0 0 1 4.7033705,-3.3343995 1.503071,1.5030735 0 0 1 6.2578273,-1.9029853"
           transform="rotate(-16.767837)" /><path
           style="opacity:1;fill:#000000;fill-opacity:1;stroke:none;stroke-width:0.428448;stroke-linecap:round;stroke-linejoin:round;stroke-miterlimit:0;stroke-dasharray:none;stroke-opacity:1"
           d="M 11.323731,4.6399549 6.2777914,10.243148"
           id="path18" /><path
           style="opacity:1;fill:#000000;fill-opacity:1;stroke:none;stroke-width:0.428448;stroke-linecap:round;stroke-linejoin:round;stroke-miterlimit:0;stroke-dasharray:none;stroke-opacity:1"
           d="M 2.4082644,6.5205609 6.2777916,10.243148"
           id="path19" /></g><path
         id="path55"
         style="display:inline;fill:#fff176;fill-opacity:1;stroke:#fff176;stroke-width:2.31896;stroke-linecap:square;stroke-dasharray:none;stroke-opacity:1"
         inkscape:label="can"
         d="m 7.9608662,13.812752 c 0,8.125455 0,15.235228 1.8053894,15.235228 H 24.209374 c 1.805391,0 1.805391,-7.109773 1.805391,-15.235228 z"
         sodipodi:nodetypes="cssc" /></g><g
       inkscape:groupmode="layer"
       id="layer4"
       inkscape:label="asdf" /></g></svg>
